<svg width="24" height="20" viewBox="0 0 24 20" fill="none" xmlns="http://www.w3.org/2000/svg">
<path d="M6.4756 6.50955L3.96094 8.96955L10.8792 15.7374L23.2632 3.6226L20.7494 1.1626L10.8792 10.8165L6.4756 6.50955Z" fill="white"/>
<path d="M18.6667 17.3913C18.6667 17.8626 18.2596 18.2609 17.7778 18.2609H2.66667C2.18489 18.2609 1.77778 17.8626 1.77778 17.3913V2.6087C1.77778 2.13739 2.18489 1.73913 2.66667 1.73913H17.696L19.1049 0.36087C18.7031 0.127428 18.2451 0.0028693 17.7778 0H2.66667C1.2 0 0 1.17391 0 2.6087V17.3913C0 18.8261 1.2 20 2.66667 20H17.7778C19.2444 20 20.4444 18.8261 20.4444 17.3913V8.84435L18.6667 10.5835V17.3913Z" fill="white"/>
</svg>
