<svg width="20" height="20" viewBox="0 0 20 20" fill="none" xmlns="http://www.w3.org/2000/svg">
<path fill-rule="evenodd" clip-rule="evenodd" d="M2.6087 0H17.3913C18.8261 0 20 1.17391 20 2.6087V17.3913C20 18.8261 18.8261 20 17.3913 20H2.6087C1.17391 20 0 18.8261 0 17.3913V2.6087C0 1.17391 1.17391 0 2.6087 0ZM18.2609 2.6087C18.2609 2.13739 17.8626 1.73913 17.3913 1.73913H2.6087C2.13739 1.73913 1.73913 2.13739 1.73913 2.6087V17.3913C1.73913 17.8626 2.13739 18.2609 2.6087 18.2609H17.3913C17.8626 18.2609 18.2609 17.8626 18.2609 17.3913V2.6087Z" fill="white"/>
</svg>
